<svg xmlns="http://www.w3.org/2000/svg" width="1400" height="720" viewBox="0 0 1400 720" role="img" aria-labelledby="title desc">
  <title id="title">Health AI Federated Learning Client desktop application preview</title>
  <desc id="desc">A stylized preview of the hospital federated learning desktop dashboard with metrics, project cards, hospital nodes, and training results.</desc>
  <defs>
    <linearGradient id="bg" x1="0" y1="0" x2="1" y2="1">
      <stop offset="0" stop-color="#f4fbfb"/>
      <stop offset="0.5" stop-color="#eef7fb"/>
      <stop offset="1" stop-color="#f7fbff"/>
    </linearGradient>
    <linearGradient id="header" x1="0" y1="0" x2="1" y2="0">
      <stop offset="0" stop-color="#0f766e"/>
      <stop offset="1" stop-color="#176b87"/>
    </linearGradient>
    <filter id="shadow" x="-20%" y="-20%" width="140%" height="140%">
      <feDropShadow dx="0" dy="18" stdDeviation="22" flood-color="#0f2f3f" flood-opacity="0.18"/>
    </filter>
    <style>
      .title { font: 700 42px Arial, sans-serif; fill: #0b2f44; }
      .subtitle { font: 400 20px Arial, sans-serif; fill: #42637a; }
      .small { font: 400 15px Arial, sans-serif; fill: #5d7180; }
      .tiny { font: 700 12px Arial, sans-serif; fill: #607586; }
      .label { font: 700 13px Arial, sans-serif; fill: #50677a; }
      .metric { font: 700 32px Arial, sans-serif; fill: #0f766e; }
      .dark { fill: #0b2f44; }
      .muted { fill: #6b7d8b; }
      .white { fill: #ffffff; }
      .card { fill: #ffffff; stroke: #d8e7ef; stroke-width: 1.5; }
      .soft { fill: #f7fbfd; stroke: #d8e7ef; stroke-width: 1.5; }
      .green { fill: #20a36b; }
      .red { fill: #d84c4c; }
      .teal { fill: #0f766e; }
      .blue { fill: #176b87; }
    </style>
  </defs>

  <rect width="1400" height="720" fill="url(#bg)"/>

  <text x="70" y="82" class="title">Health AI Federated Learning Client</text>
  <text x="70" y="118" class="subtitle">Academic PySide6, PyTorch, SQLite, and FastAPI prototype for hospital federated learning</text>

  <g filter="url(#shadow)">
    <rect x="70" y="155" width="1260" height="500" rx="20" fill="#ffffff"/>
  </g>

  <rect x="70" y="155" width="1260" height="500" rx="20" fill="#ffffff" stroke="#d7e6ee" stroke-width="1.5"/>
  <rect x="70" y="155" width="1260" height="60" rx="20" fill="url(#header)"/>
  <rect x="70" y="190" width="1260" height="25" fill="url(#header)"/>
  <circle cx="105" cy="185" r="8" fill="#ffefef"/>
  <circle cx="132" cy="185" r="8" fill="#fff4d6"/>
  <circle cx="159" cy="185" r="8" fill="#dff8ef"/>
  <text x="196" y="190" font-family="Arial, sans-serif" font-size="18" font-weight="700" fill="#ffffff">HospitalFLSystem</text>
  <text x="1120" y="190" font-family="Arial, sans-serif" font-size="14" fill="#d9f7f4">Research Prototype</text>

  <rect x="70" y="215" width="230" height="440" fill="#f2f7fa"/>
  <text x="105" y="260" font-family="Arial, sans-serif" font-size="24" font-weight="700" fill="#0b2f44">Navigation</text>
  <rect x="95" y="288" width="180" height="38" rx="8" fill="#0f766e"/>
  <text x="120" y="312" font-family="Arial, sans-serif" font-size="15" font-weight="700" fill="#ffffff">Dashboard</text>
  <text x="120" y="360" class="small">Hospital Registry</text>
  <text x="120" y="405" class="small">FL Project Runner</text>
  <text x="120" y="450" class="small">Results</text>
  <text x="120" y="495" class="small">Grad-CAM</text>
  <text x="120" y="540" class="small">Settings</text>

  <text x="330" y="260" font-family="Arial, sans-serif" font-size="28" font-weight="700" fill="#0b2f44">Admin Dashboard</text>
  <text x="330" y="288" class="small">Monitor project requests, active hospitals, model training, and medical AI evaluation.</text>

  <rect x="330" y="315" width="220" height="110" rx="12" class="card"/>
  <text x="355" y="345" class="label">ACTIVE HOSPITALS</text>
  <text x="355" y="385" class="metric">5</text>
  <text x="410" y="385" class="small">of 6 available</text>
  <circle cx="512" cy="380" r="10" class="green"/>

  <rect x="575" y="315" width="220" height="110" rx="12" class="card"/>
  <text x="600" y="345" class="label">LATEST FL PROJECT</text>
  <text x="600" y="385" class="metric">FedProx</text>
  <text x="600" y="408" class="small">Round 5 completed</text>

  <rect x="820" y="315" width="220" height="110" rx="12" class="card"/>
  <text x="845" y="345" class="label">SENSITIVITY</text>
  <text x="845" y="385" class="metric">0.94</text>
  <text x="845" y="408" class="small">Pneumonia recall</text>

  <rect x="1065" y="315" width="220" height="110" rx="12" class="card"/>
  <text x="1090" y="345" class="label">FALSE NEGATIVES</text>
  <text x="1090" y="385" font-family="Arial, sans-serif" font-size="32" font-weight="700" fill="#d84c4c">2</text>
  <text x="1090" y="408" class="small">Clinically highlighted</text>

  <rect x="330" y="450" width="470" height="170" rx="12" class="soft"/>
  <text x="355" y="482" font-family="Arial, sans-serif" font-size="18" font-weight="700" fill="#0b2f44">Federated Project Visualizer</text>
  <line x1="565" y1="540" x2="430" y2="505" stroke="#64b6ac" stroke-width="3" stroke-dasharray="8 8"/>
  <line x1="565" y1="540" x2="430" y2="580" stroke="#64b6ac" stroke-width="3" stroke-dasharray="8 8"/>
  <line x1="565" y1="540" x2="695" y2="505" stroke="#64b6ac" stroke-width="3" stroke-dasharray="8 8"/>
  <line x1="565" y1="540" x2="695" y2="580" stroke="#d84c4c" stroke-width="3" stroke-dasharray="8 8"/>
  <circle cx="565" cy="540" r="42" fill="#0f766e"/>
  <text x="535" y="535" font-family="Arial, sans-serif" font-size="13" font-weight="700" fill="#ffffff">Global</text>
  <text x="535" y="554" font-family="Arial, sans-serif" font-size="13" font-weight="700" fill="#ffffff">Server</text>
  <circle cx="430" cy="505" r="24" class="green"/>
  <circle cx="430" cy="580" r="24" class="green"/>
  <circle cx="695" cy="505" r="24" class="green"/>
  <circle cx="695" cy="580" r="24" class="red"/>
  <text x="390" y="545" class="tiny">Active</text>
  <text x="654" y="622" class="tiny">Inactive</text>

  <rect x="825" y="450" width="460" height="170" rx="12" class="soft"/>
  <text x="850" y="482" font-family="Arial, sans-serif" font-size="18" font-weight="700" fill="#0b2f44">Evaluation Summary</text>
  <rect x="855" y="520" width="90" height="70" rx="8" fill="#e8f7f3"/>
  <text x="875" y="548" class="label">F1</text>
  <text x="875" y="575" font-family="Arial, sans-serif" font-size="22" font-weight="700" fill="#0f766e">0.91</text>
  <rect x="970" y="520" width="90" height="70" rx="8" fill="#eaf4fb"/>
  <text x="990" y="548" class="label">AUC</text>
  <text x="990" y="575" font-family="Arial, sans-serif" font-size="22" font-weight="700" fill="#176b87">0.96</text>
  <rect x="1085" y="520" width="90" height="70" rx="8" fill="#fff2f2"/>
  <text x="1105" y="548" class="label">FN</text>
  <text x="1105" y="575" font-family="Arial, sans-serif" font-size="22" font-weight="700" fill="#d84c4c">2</text>
  <path d="M855 612 C900 565, 940 590, 985 555 S1095 535, 1170 570 S1230 545, 1260 530" fill="none" stroke="#0f766e" stroke-width="5"/>

  <text x="70" y="690" class="subtitle">Transparent FL methodology, medical metrics, reproducibility, LAN demo, and honest prototype limitations</text>
</svg>
